<?xml version="1.0" encoding="iso-8859-1"?>
<!-- Generator: Adobe Illustrator 19.1.0, SVG Export Plug-In . SVG Version: 6.00 Build 0)  -->
<svg version="1.1" id="Capa_1" xmlns="http://www.w3.org/2000/svg" xmlns:xlink="http://www.w3.org/1999/xlink" x="0px" y="0px"
	 viewBox="0 0 428.003 428.003" style="enable-background:new 0 0 428.003 428.003;" xml:space="preserve">
<g>
	<path d="M413.225,180.383c2.28,2.09,3.04,5.36,1.92,8.24c-1.13,2.88-3.9,4.78-6.99,4.78h-45.01v227.1c0,4.14-3.36,7.5-7.5,7.5
		H72.355c-4.14,0-7.5-3.36-7.5-7.5v-227.1h-45c-3.1,0-5.87-1.9-6.99-4.78c-1.13-2.88-0.37-6.15,1.91-8.24l194.15-178.41
		c2.87-2.63,7.28-2.63,10.15,0L413.225,180.383z M355.645,178.402h33.26l-174.9-160.72l-174.91,160.72h33.26
		c4.14,0,7.5,3.36,7.5,7.5v227.1h65.15v-112.4l-20.41-20.4c-2.19,0.83-4.57,1.31-7.06,1.31c-11.03,0-20-8.97-20-20
		c0-11.03,8.97-20,20-20s20,8.97,20,20c0,3.04-0.7,5.91-1.92,8.5l22.19,22.18c1.41,1.41,2.2,3.32,2.2,5.31v115.5h17.5v-198.61
		l-13.66-13.66c-2.06,0.72-4.26,1.13-6.56,1.13c-11.02,0-20-8.98-20-20c0-11.03,8.98-20,20-20c11.03,0,20,8.97,20,20
		c0,3.22-0.78,6.26-2.14,8.96l15.16,15.16c1.41,1.41,2.2,3.31,2.2,5.3v201.72h17.5v-284.98c-7.32-2.97-12.5-10.15-12.5-18.52
		c0-11.03,8.97-20,20-20c11.02,0,20,8.97,20,20c0,8.37-5.18,15.55-12.5,18.52v284.98h17.5v-161.5c0-1.99,0.79-3.9,2.19-5.31
		l16.26-16.25c-0.93-2.31-1.45-4.81-1.45-7.44c0-11.03,8.97-20,20-20c11.02,0,20,8.97,20,20c0,11.02-8.98,20-20,20
		c-2.9,0-5.66-0.64-8.15-1.75l-13.85,13.85v158.4h16.9v-75.5c0-1.99,0.79-3.9,2.19-5.31l22.19-22.18c-1.22-2.59-1.92-5.46-1.92-8.5
		c0-11.03,8.97-20,20-20s20,8.97,20,20s-8.97,20-20,20c-2.49,0-4.86-0.48-7.06-1.31l-20.4,20.4v72.4h58.74v-227.1
		C348.145,181.762,351.505,178.402,355.645,178.402z M321.865,301.513c0-2.76-2.24-5-5-5s-5,2.24-5,5c0,2.76,2.24,5,5,5
		S321.865,304.272,321.865,301.513z M284.505,222.503c0-2.76-2.25-5-5-5c-2.76,0-5,2.24-5,5c0,2.75,2.24,5,5,5
		C282.255,227.503,284.505,225.253,284.505,222.503z M222.505,109.503c0-2.76-2.25-5-5-5c-2.76,0-5,2.24-5,5c0,2.75,2.24,5,5,5
		C220.255,114.503,222.505,112.253,222.505,109.503z M162.285,181.863c0-2.76-2.24-5-5-5c-2.75,0-5,2.24-5,5c0,2.75,2.25,5,5,5
		C160.045,186.863,162.285,184.613,162.285,181.863z M122.535,261.513c0-2.76-2.24-5-5-5c-2.75,0-5,2.24-5,5c0,2.76,2.25,5,5,5
		C120.295,266.513,122.535,264.272,122.535,261.513z"/>
	<path style="fill:#3DD0F2;" d="M388.905,178.402h-33.26c-4.14,0-7.5,3.36-7.5,7.5v227.1h-58.74v-72.4l20.4-20.4
		c2.2,0.83,4.57,1.31,7.06,1.31c11.03,0,20-8.97,20-20s-8.97-20-20-20s-20,8.97-20,20c0,3.04,0.7,5.91,1.92,8.5l-22.19,22.18
		c-1.4,1.41-2.19,3.32-2.19,5.31v75.5h-16.9v-158.4l13.85-13.85c2.49,1.11,5.25,1.75,8.15,1.75c11.02,0,20-8.98,20-20
		c0-11.03-8.98-20-20-20c-11.03,0-20,8.97-20,20c0,2.63,0.52,5.13,1.45,7.44l-16.26,16.25c-1.4,1.41-2.19,3.32-2.19,5.31v161.5
		h-17.5v-284.98c7.32-2.97,12.5-10.15,12.5-18.52c0-11.03-8.98-20-20-20c-11.03,0-20,8.97-20,20c0,8.37,5.18,15.55,12.5,18.52
		v284.98h-17.5v-201.72c0-1.99-0.79-3.89-2.2-5.3l-15.16-15.16c1.36-2.7,2.14-5.74,2.14-8.96c0-11.03-8.97-20-20-20
		c-11.02,0-20,8.97-20,20c0,11.02,8.98,20,20,20c2.3,0,4.5-0.41,6.56-1.13l13.66,13.66v198.61h-17.5v-115.5
		c0-1.99-0.79-3.9-2.2-5.31l-22.19-22.18c1.22-2.59,1.92-5.46,1.92-8.5c0-11.03-8.97-20-20-20s-20,8.97-20,20c0,11.03,8.97,20,20,20
		c2.49,0,4.87-0.48,7.06-1.31l20.41,20.4v112.4h-65.15v-227.1c0-4.14-3.36-7.5-7.5-7.5h-33.26l174.91-160.72L388.905,178.402z"/>
</g>
<g>
</g>
<g>
</g>
<g>
</g>
<g>
</g>
<g>
</g>
<g>
</g>
<g>
</g>
<g>
</g>
<g>
</g>
<g>
</g>
<g>
</g>
<g>
</g>
<g>
</g>
<g>
</g>
<g>
</g>
</svg>
