<?xml version="1.0" encoding="iso-8859-1"?>
<!-- Generator: Adobe Illustrator 19.1.0, SVG Export Plug-In . SVG Version: 6.00 Build 0)  -->
<svg version="1.1" id="Capa_1" xmlns="http://www.w3.org/2000/svg" xmlns:xlink="http://www.w3.org/1999/xlink" x="0px" y="0px"
	 viewBox="0 0 466 466" style="enable-background:new 0 0 466 466;" xml:space="preserve">
<g>
	<path d="M347.045,50.14v392.62c0,12.82-10.43,23.24-23.24,23.24h-181.61c-12.81,0-23.24-10.42-23.24-23.24V50.14
		c0-10.53,7.04-19.43,16.65-22.29v-1.77c0-14.38,11.69-26.08,26.07-26.08h142.65c14.38,0,26.08,11.7,26.08,26.08v1.77
		C340.015,30.71,347.045,39.61,347.045,50.14z M332.045,442.76V50.14c0-4.55-3.7-8.24-8.24-8.24h-181.61
		c-4.54,0-8.24,3.69-8.24,8.24v392.62c0,4.54,3.7,8.24,8.24,8.24h181.61C328.345,451,332.045,447.3,332.045,442.76z M315.405,26.9
		v-0.82c0-6.11-4.97-11.08-11.08-11.08h-142.65c-6.1,0-11.07,4.97-11.07,11.08v0.82H315.405z"/>
	<path style="fill:#3DD0F2;" d="M332.045,50.14v392.62c0,4.54-3.7,8.24-8.24,8.24h-181.61c-4.54,0-8.24-3.7-8.24-8.24V50.14
		c0-4.55,3.7-8.24,8.24-8.24h181.61C328.345,41.9,332.045,45.59,332.045,50.14z M320.225,92.32c0-4.14-3.36-7.5-7.5-7.5h-26.9
		c-4.14,0-7.5,3.36-7.5,7.5s3.36,7.5,7.5,7.5h26.9C316.865,99.82,320.225,96.46,320.225,92.32z M320.225,175.75
		c0-14.4-11.72-26.12-26.12-26.12c-14.4,0-26.12,11.72-26.12,26.12s11.72,26.12,26.12,26.12
		C308.505,201.87,320.225,190.15,320.225,175.75z M320.225,235.03c0-14.4-11.72-26.12-26.12-26.12c-14.4,0-26.12,11.72-26.12,26.12
		s11.72,26.12,26.12,26.12C308.505,261.15,320.225,249.43,320.225,235.03z M320.225,294.31c0-14.4-11.72-26.12-26.12-26.12
		c-14.4,0-26.12,11.72-26.12,26.12s11.72,26.12,26.12,26.12C308.505,320.43,320.225,308.71,320.225,294.31z M320.225,353.59
		c0-14.4-11.72-26.12-26.12-26.12c-14.4,0-26.12,11.72-26.12,26.12s11.72,26.12,26.12,26.12
		C308.505,379.71,320.225,367.99,320.225,353.59z M259.125,175.75c0-14.4-11.72-26.12-26.12-26.12c-14.41,0-26.12,11.72-26.12,26.12
		s11.71,26.12,26.12,26.12C247.405,201.87,259.125,190.15,259.125,175.75z M259.125,235.03c0-14.4-11.72-26.12-26.12-26.12
		c-14.41,0-26.12,11.72-26.12,26.12s11.71,26.12,26.12,26.12C247.405,261.15,259.125,249.43,259.125,235.03z M259.125,294.31
		c0-14.4-11.72-26.12-26.12-26.12c-14.41,0-26.12,11.72-26.12,26.12s11.71,26.12,26.12,26.12
		C247.405,320.43,259.125,308.71,259.125,294.31z M259.125,353.59c0-14.4-11.72-26.12-26.12-26.12c-14.41,0-26.12,11.72-26.12,26.12
		s11.71,26.12,26.12,26.12C247.405,379.71,259.125,367.99,259.125,353.59z M198.015,91.57c0-14.4-11.71-26.12-26.11-26.12
		c-14.41,0-26.12,11.72-26.12,26.12s11.71,26.12,26.12,26.12C186.305,117.69,198.015,105.97,198.015,91.57z M198.015,175.75
		c0-14.4-11.71-26.12-26.11-26.12c-14.41,0-26.12,11.72-26.12,26.12s11.71,26.12,26.12,26.12
		C186.305,201.87,198.015,190.15,198.015,175.75z M198.015,235.03c0-14.4-11.71-26.12-26.11-26.12c-14.41,0-26.12,11.72-26.12,26.12
		s11.71,26.12,26.12,26.12C186.305,261.15,198.015,249.43,198.015,235.03z M198.015,294.31c0-14.4-11.71-26.12-26.11-26.12
		c-14.41,0-26.12,11.72-26.12,26.12s11.71,26.12,26.12,26.12C186.305,320.43,198.015,308.71,198.015,294.31z M198.015,353.59
		c0-14.4-11.71-26.12-26.11-26.12c-14.41,0-26.12,11.72-26.12,26.12s11.71,26.12,26.12,26.12
		C186.305,379.71,198.015,367.99,198.015,353.59z"/>
	<path d="M312.725,84.82c4.14,0,7.5,3.36,7.5,7.5s-3.36,7.5-7.5,7.5h-26.9c-4.14,0-7.5-3.36-7.5-7.5s3.36-7.5,7.5-7.5H312.725z"/>
	<path d="M294.105,149.63c14.4,0,26.12,11.72,26.12,26.12s-11.72,26.12-26.12,26.12c-14.4,0-26.12-11.72-26.12-26.12
		S279.705,149.63,294.105,149.63z M305.225,175.75c0-6.13-4.99-11.12-11.12-11.12c-6.13,0-11.12,4.99-11.12,11.12
		s4.99,11.12,11.12,11.12C300.235,186.87,305.225,181.88,305.225,175.75z"/>
	<path d="M294.105,208.91c14.4,0,26.12,11.72,26.12,26.12s-11.72,26.12-26.12,26.12c-14.4,0-26.12-11.72-26.12-26.12
		S279.705,208.91,294.105,208.91z M305.225,235.03c0-6.13-4.99-11.12-11.12-11.12c-6.13,0-11.12,4.99-11.12,11.12
		s4.99,11.12,11.12,11.12C300.235,246.15,305.225,241.16,305.225,235.03z"/>
	<path d="M294.105,268.19c14.4,0,26.12,11.72,26.12,26.12s-11.72,26.12-26.12,26.12c-14.4,0-26.12-11.72-26.12-26.12
		S279.705,268.19,294.105,268.19z M305.225,294.31c0-6.13-4.99-11.12-11.12-11.12c-6.13,0-11.12,4.99-11.12,11.12
		s4.99,11.12,11.12,11.12C300.235,305.43,305.225,300.44,305.225,294.31z"/>
	<path d="M294.105,327.47c14.4,0,26.12,11.72,26.12,26.12s-11.72,26.12-26.12,26.12c-14.4,0-26.12-11.72-26.12-26.12
		S279.705,327.47,294.105,327.47z M305.225,353.59c0-6.13-4.99-11.12-11.12-11.12c-6.13,0-11.12,4.99-11.12,11.12
		s4.99,11.12,11.12,11.12C300.235,364.71,305.225,359.72,305.225,353.59z"/>
	<path style="fill:#F48C6C;" d="M294.105,283.19c6.13,0,11.12,4.99,11.12,11.12s-4.99,11.12-11.12,11.12
		c-6.13,0-11.12-4.99-11.12-11.12S287.975,283.19,294.105,283.19z"/>
	<path d="M233.005,149.63c14.4,0,26.12,11.72,26.12,26.12s-11.72,26.12-26.12,26.12c-14.41,0-26.12-11.72-26.12-26.12
		S218.595,149.63,233.005,149.63z M244.125,175.75c0-6.13-4.99-11.12-11.12-11.12c-6.13,0-11.12,4.99-11.12,11.12
		s4.99,11.12,11.12,11.12C239.135,186.87,244.125,181.88,244.125,175.75z"/>
	<path d="M233.005,208.91c14.4,0,26.12,11.72,26.12,26.12s-11.72,26.12-26.12,26.12c-14.41,0-26.12-11.72-26.12-26.12
		S218.595,208.91,233.005,208.91z M244.125,235.03c0-6.13-4.99-11.12-11.12-11.12c-6.13,0-11.12,4.99-11.12,11.12
		s4.99,11.12,11.12,11.12C239.135,246.15,244.125,241.16,244.125,235.03z"/>
	<path d="M233.005,268.19c14.4,0,26.12,11.72,26.12,26.12s-11.72,26.12-26.12,26.12c-14.41,0-26.12-11.72-26.12-26.12
		S218.595,268.19,233.005,268.19z M244.125,294.31c0-6.13-4.99-11.12-11.12-11.12c-6.13,0-11.12,4.99-11.12,11.12
		s4.99,11.12,11.12,11.12C239.135,305.43,244.125,300.44,244.125,294.31z"/>
	<path d="M233.005,327.47c14.4,0,26.12,11.72,26.12,26.12s-11.72,26.12-26.12,26.12c-14.41,0-26.12-11.72-26.12-26.12
		S218.595,327.47,233.005,327.47z M244.125,353.59c0-6.13-4.99-11.12-11.12-11.12c-6.13,0-11.12,4.99-11.12,11.12
		s4.99,11.12,11.12,11.12C239.135,364.71,244.125,359.72,244.125,353.59z"/>
	<path style="fill:#F48C6C;" d="M233.005,223.91c6.13,0,11.12,4.99,11.12,11.12s-4.99,11.12-11.12,11.12
		c-6.13,0-11.12-4.99-11.12-11.12S226.875,223.91,233.005,223.91z"/>
	<path d="M171.905,65.45c14.4,0,26.11,11.72,26.11,26.12s-11.71,26.12-26.11,26.12c-14.41,0-26.12-11.72-26.12-26.12
		S157.495,65.45,171.905,65.45z M183.015,91.57c0-6.13-4.98-11.12-11.11-11.12c-6.14,0-11.12,4.99-11.12,11.12
		s4.98,11.12,11.12,11.12C178.035,102.69,183.015,97.7,183.015,91.57z"/>
	<path d="M171.905,149.63c14.4,0,26.11,11.72,26.11,26.12s-11.71,26.12-26.11,26.12c-14.41,0-26.12-11.72-26.12-26.12
		S157.495,149.63,171.905,149.63z M183.015,175.75c0-6.13-4.98-11.12-11.11-11.12c-6.14,0-11.12,4.99-11.12,11.12
		s4.98,11.12,11.12,11.12C178.035,186.87,183.015,181.88,183.015,175.75z"/>
	<path d="M171.905,208.91c14.4,0,26.11,11.72,26.11,26.12s-11.71,26.12-26.11,26.12c-14.41,0-26.12-11.72-26.12-26.12
		S157.495,208.91,171.905,208.91z M183.015,235.03c0-6.13-4.98-11.12-11.11-11.12c-6.14,0-11.12,4.99-11.12,11.12
		s4.98,11.12,11.12,11.12C178.035,246.15,183.015,241.16,183.015,235.03z"/>
	<path d="M171.905,268.19c14.4,0,26.11,11.72,26.11,26.12s-11.71,26.12-26.11,26.12c-14.41,0-26.12-11.72-26.12-26.12
		S157.495,268.19,171.905,268.19z M183.015,294.31c0-6.13-4.98-11.12-11.11-11.12c-6.14,0-11.12,4.99-11.12,11.12
		s4.98,11.12,11.12,11.12C178.035,305.43,183.015,300.44,183.015,294.31z"/>
	<path d="M171.905,327.47c14.4,0,26.11,11.72,26.11,26.12s-11.71,26.12-26.11,26.12c-14.41,0-26.12-11.72-26.12-26.12
		S157.495,327.47,171.905,327.47z M183.015,353.59c0-6.13-4.98-11.12-11.11-11.12c-6.14,0-11.12,4.99-11.12,11.12
		s4.98,11.12,11.12,11.12C178.035,364.71,183.015,359.72,183.015,353.59z"/>
	<path style="fill:#F48C6C;" d="M171.905,80.45c6.13,0,11.11,4.99,11.11,11.12s-4.98,11.12-11.11,11.12
		c-6.14,0-11.12-4.99-11.12-11.12S165.765,80.45,171.905,80.45z"/>
	<path style="fill:#F48C6C;" d="M171.905,342.47c6.13,0,11.11,4.99,11.11,11.12s-4.98,11.12-11.11,11.12
		c-6.14,0-11.12-4.99-11.12-11.12S165.765,342.47,171.905,342.47z"/>
</g>
<g>
</g>
<g>
</g>
<g>
</g>
<g>
</g>
<g>
</g>
<g>
</g>
<g>
</g>
<g>
</g>
<g>
</g>
<g>
</g>
<g>
</g>
<g>
</g>
<g>
</g>
<g>
</g>
<g>
</g>
</svg>
