<?xml version="1.0" encoding="iso-8859-1"?>
<!-- Generator: Adobe Illustrator 19.1.0, SVG Export Plug-In . SVG Version: 6.00 Build 0)  -->
<svg version="1.1" id="Capa_1" xmlns="http://www.w3.org/2000/svg" xmlns:xlink="http://www.w3.org/1999/xlink" x="0px" y="0px"
	 viewBox="0 0 439.48 439.48" style="enable-background:new 0 0 439.48 439.48;" xml:space="preserve">
<g>
	<path d="M358.552,103c11.03,0,20,8.97,20,20c0,11.02-8.97,20-20,20c-8.38,0-15.55-5.18-18.53-12.5h-90.52v19.49h56.05
		c1.99,0,3.9,0.79,5.3,2.2l29.91,29.9c2.44-1.03,5.08-1.58,7.81-1.58c2.67,0,5.26,0.52,7.65,1.51c2.4,0.99,4.6,2.46,6.49,4.35
		c7.8,7.8,7.8,20.48,0,28.28c-3.78,3.78-8.8,5.86-14.14,5.86c-5.35,0-10.37-2.08-14.15-5.86c-3.77-3.78-5.85-8.8-5.85-14.14
		c0-2.73,0.55-5.37,1.58-7.81l-27.71-27.71h-52.94v22.5h18.55c1.99,0,3.9,0.79,5.31,2.2l12.22,12.22c2.44-1.03,5.08-1.58,7.81-1.58
		c2.67,0,5.26,0.52,7.65,1.51c2.4,0.99,4.6,2.46,6.49,4.35c7.8,7.8,7.8,20.48,0,28.28c-3.78,3.78-8.8,5.86-14.14,5.86
		s-10.36-2.08-14.14-5.86c-3.78-3.77-5.86-8.8-5.86-14.14c0-2.73,0.55-5.37,1.58-7.81l-10.02-10.03h-15.45v29.33
		c27.74,21.99,44.19,55.82,44.19,91.28c0,31.39-12.31,60.82-34.67,82.87c-21.95,21.65-50.91,33.51-81.7,33.51
		c-0.55,0-1.11,0-1.67-0.01c-30.29-0.42-58.87-12.53-80.47-34.1c-21.61-21.57-33.77-50.13-34.24-80.41
		c-0.57-36.2,15.88-70.72,44.17-93.14V72.2c0-39.81,32.39-72.2,72.2-72.2s72.19,32.39,72.19,72.2V81h30.45l10.02-10.03
		c-1.03-2.44-1.58-5.08-1.58-7.81c0-5.34,2.08-10.37,5.86-14.14c7.79-7.8,20.48-7.8,28.28,0c3.78,3.77,5.86,8.8,5.86,14.14
		s-2.08,10.36-5.86,14.14c-3.9,3.9-9.02,5.85-14.14,5.85c-2.66,0-5.31-0.54-7.8-1.59l-12.23,12.24c-1.41,1.41-3.32,2.2-5.31,2.2
		h-33.55v19.5h90.52C343.002,108.18,350.172,103,358.552,103z M363.552,123c0-2.76-2.24-5-5-5c-2.76,0-5,2.24-5,5c0,2.75,2.24,5,5,5
		C361.312,128,363.552,125.75,363.552,123z M352.102,204.05c1.95-1.95,1.95-5.13,0-7.08c-0.94-0.94-2.2-1.46-3.53-1.46
		c-1.34,0-2.59,0.52-3.54,1.46c-0.94,0.95-1.46,2.2-1.46,3.54c0,1.34,0.52,2.59,1.46,3.54c0.95,0.94,2.2,1.46,3.54,1.46
		C349.902,205.51,351.162,204.99,352.102,204.05z M313.392,63.16c0-1.34-0.52-2.59-1.46-3.54c-0.98-0.97-2.26-1.46-3.54-1.46
		s-2.56,0.49-3.54,1.46c-0.94,0.95-1.46,2.2-1.46,3.54s0.52,2.59,1.46,3.54c1.95,1.94,5.12,1.94,7.08,0
		C312.872,65.75,313.392,64.5,313.392,63.16z M296.932,223.87c1.94-1.95,1.94-5.13,0-7.08c-0.95-0.94-2.2-1.46-3.54-1.46
		s-2.59,0.52-3.53,1.46c-0.95,0.95-1.47,2.2-1.47,3.54s0.52,2.59,1.46,3.54c0.95,0.94,2.2,1.46,3.54,1.46
		S295.982,224.81,296.932,223.87z M248.492,395.29c19.47-19.21,30.2-44.84,30.2-72.19c0-32-15.38-62.48-41.15-81.55
		c-1.91-1.41-3.04-3.65-3.04-6.03v-33.03h-16.56v45.16l9.75,7.21c21.89,16.2,34.44,41.07,34.44,68.24
		c0,22.66-8.83,43.96-24.85,59.98c-16.01,16.02-37.31,24.84-59.97,24.84c0,0-0.81,0-1.22-0.01c-45.38-0.63-82.88-38.06-83.59-83.45
		c-0.43-27.31,12.44-53.33,34.42-69.6l9.75-7.21V72.2c0-22.41,18.23-40.64,40.64-40.64c22.4,0,40.63,18.23,40.63,40.64V81h16.56
		v-8.8c0-31.54-25.66-57.2-57.19-57.2c-31.54,0-57.2,25.66-57.2,57.2v163.32c0,2.38-1.13,4.62-3.04,6.03
		c-26.27,19.44-41.64,50.53-41.13,83.17c0.41,26.37,11.01,51.24,29.84,70.03c18.82,18.8,43.71,29.35,70.08,29.72
		C203.212,424.85,229.022,414.49,248.492,395.29z M226.682,372.47c13.18-13.19,20.45-30.72,20.45-49.37
		c0-22.37-10.34-42.84-28.36-56.18l-12.79-9.46c-1.91-1.41-3.04-3.65-3.04-6.03v-48.94h-23.38c-4.15,0-7.5-3.36-7.5-7.5
		s3.35-7.5,7.5-7.5h23.38v-22.5h-23.38c-4.15,0-7.5-3.35-7.5-7.5c0-4.14,3.35-7.5,7.5-7.5h23.38V130.5h-23.38
		c-4.15,0-7.5-3.36-7.5-7.5c0-4.15,3.35-7.5,7.5-7.5h23.38V96h-23.38c-4.15,0-7.5-3.36-7.5-7.5s3.35-7.5,7.5-7.5h23.38v-8.8
		c0-14.14-11.5-25.64-25.63-25.64c-14.14,0-25.64,11.5-25.64,25.64v179.23c0,2.38-1.13,4.61-3.04,6.03l-12.79,9.46
		c-18.1,13.4-28.7,34.82-28.34,57.31c0.58,37.35,31.44,68.16,68.8,68.68c0.34,0.01,1.01,0.01,1.04,0.01
		C195.962,392.92,213.492,385.66,226.682,372.47z M234.502,187.49v-22.5h-16.56v22.5H234.502z M234.502,149.99V130.5h-16.56v19.49
		H234.502z M234.502,115.5V96h-16.56v19.5H234.502z"/>
	<path style="fill:#3DD0F2;" d="M358.552,118c2.76,0,5,2.24,5,5c0,2.75-2.24,5-5,5c-2.76,0-5-2.25-5-5
		C353.552,120.24,355.792,118,358.552,118z"/>
	<path style="fill:#3DD0F2;" d="M352.102,196.97c1.95,1.95,1.95,5.13,0,7.08c-0.94,0.94-2.2,1.46-3.53,1.46
		c-1.34,0-2.59-0.52-3.54-1.46c-0.94-0.95-1.46-2.2-1.46-3.54c0-1.34,0.52-2.59,1.46-3.54c0.95-0.94,2.2-1.46,3.54-1.46
		C349.902,195.51,351.162,196.03,352.102,196.97z"/>
	<path style="fill:#3DD0F2;" d="M311.932,59.62c0.94,0.95,1.46,2.2,1.46,3.54s-0.52,2.59-1.46,3.54c-1.96,1.94-5.13,1.94-7.08,0
		c-0.94-0.95-1.46-2.2-1.46-3.54s0.52-2.59,1.46-3.54c0.98-0.97,2.26-1.46,3.54-1.46S310.952,58.65,311.932,59.62z"/>
	<path style="fill:#3DD0F2;" d="M296.932,216.79c1.94,1.95,1.94,5.13,0,7.08c-0.95,0.94-2.2,1.46-3.54,1.46s-2.59-0.52-3.54-1.46
		c-0.94-0.95-1.46-2.2-1.46-3.54s0.52-2.59,1.47-3.54c0.94-0.94,2.19-1.46,3.53-1.46S295.982,215.85,296.932,216.79z"/>
	<path style="fill:#F48C6C;" d="M247.132,323.1c0,18.65-7.27,36.18-20.45,49.37c-13.19,13.19-30.72,20.45-49.34,20.45
		c-0.03,0-0.7,0-1.04-0.01c-37.36-0.52-68.22-31.33-68.8-68.68c-0.36-22.49,10.24-43.91,28.34-57.31l12.79-9.46
		c1.91-1.42,3.04-3.65,3.04-6.03V72.2c0-14.14,11.5-25.64,25.64-25.64c14.13,0,25.63,11.5,25.63,25.64V81h-23.38
		c-4.15,0-7.5,3.36-7.5,7.5s3.35,7.5,7.5,7.5h23.38v19.5h-23.38c-4.15,0-7.5,3.35-7.5,7.5c0,4.14,3.35,7.5,7.5,7.5h23.38v19.49
		h-23.38c-4.15,0-7.5,3.36-7.5,7.5c0,4.15,3.35,7.5,7.5,7.5h23.38v22.5h-23.38c-4.15,0-7.5,3.36-7.5,7.5s3.35,7.5,7.5,7.5h23.38
		v48.94c0,2.38,1.13,4.62,3.04,6.03l12.79,9.46C236.792,280.26,247.132,300.73,247.132,323.1z"/>
</g>
<g>
</g>
<g>
</g>
<g>
</g>
<g>
</g>
<g>
</g>
<g>
</g>
<g>
</g>
<g>
</g>
<g>
</g>
<g>
</g>
<g>
</g>
<g>
</g>
<g>
</g>
<g>
</g>
<g>
</g>
</svg>
